<?xml version="1.0" encoding="utf-8"?>
<!-- Generator: Adobe Illustrator 16.0.0, SVG Export Plug-In . SVG Version: 6.00 Build 0)  -->
<!DOCTYPE svg PUBLIC "-//W3C//DTD SVG 1.1//EN" "http://www.w3.org/Graphics/SVG/1.1/DTD/svg11.dtd">
<svg version="1.1" id="Layer_1" xmlns="http://www.w3.org/2000/svg" xmlns:xlink="http://www.w3.org/1999/xlink" x="0px" y="0px"
	 width="48px" height="48px" viewBox="0 0 48 48" enable-background="new 0 0 48 48" xml:space="preserve">
<circle fill="#4285F4" cx="24" cy="24" r="24"/>
<path fill="#FFFFFF" d="M23.992,7.167C14.691,7.167,7.167,14.7,7.167,24c0,9.299,7.524,16.833,16.825,16.833
	c9.3,0,16.841-7.534,16.841-16.833C40.833,14.7,33.292,7.167,23.992,7.167z M35.648,17.267h-4.967
	c-0.547-2.104-1.313-4.124-2.322-5.994C31.458,12.333,34.033,14.481,35.648,17.267z M24,10.591c1.404,2.02,2.5,4.268,3.215,6.676
	h-6.429C21.5,14.858,22.595,12.611,24,10.591z M10.971,27.367c-0.277-1.079-0.438-2.207-0.438-3.367
	c0-1.163,0.161-2.289,0.439-3.367h5.682c-0.137,1.102-0.229,2.221-0.229,3.367c0,1.143,0.092,2.264,0.236,3.367H10.971z
	 M12.342,30.732h4.967c0.547,2.104,1.313,4.121,2.324,6C16.535,35.671,13.959,33.518,12.342,30.732z M17.309,17.267h-4.967
	c1.616-2.786,4.191-4.942,7.288-6.003C18.622,13.143,17.856,15.163,17.309,17.267z M24,37.408c-1.397-2.021-2.491-4.27-3.215-6.676
	h6.429C26.49,33.141,25.396,35.389,24,37.408z M27.939,27.367h-7.878c-0.16-1.104-0.269-2.225-0.269-3.367
	c0-1.146,0.109-2.265,0.268-3.367h7.879c0.16,1.102,0.27,2.221,0.27,3.367C28.208,25.143,28.1,26.264,27.939,27.367z M28.367,36.725
	c1.011-1.877,1.775-3.888,2.322-5.992h4.968C34.033,33.518,31.458,35.663,28.367,36.725z M31.34,27.367
	c0.135-1.104,0.235-2.223,0.235-3.367c0-1.146-0.093-2.265-0.235-3.367h5.682c0.277,1.078,0.444,2.204,0.444,3.367
	c0,1.16-0.159,2.288-0.444,3.367H31.34z"/>
</svg>
