<?xml version="1.0" encoding="utf-8"?>
<!-- Generator: Adobe Illustrator 16.0.0, SVG Export Plug-In . SVG Version: 6.00 Build 0)  -->
<!DOCTYPE svg PUBLIC "-//W3C//DTD SVG 1.1//EN" "http://www.w3.org/Graphics/SVG/1.1/DTD/svg11.dtd">
<svg version="1.1" id="Layer_1" xmlns="http://www.w3.org/2000/svg" xmlns:xlink="http://www.w3.org/1999/xlink" x="0px" y="0px"
	 width="135px" height="48px" viewBox="0 0 135 48" enable-background="new 0 0 135 48" xml:space="preserve">
<g>
	<path fill="#28A745" d="M15.567,36.16c8.573,0,15.566-6.996,15.566-15.57c0-8.574-6.993-15.567-15.566-15.567
		C6.993,5.023,0,12.018,0,20.591C0,29.166,6.993,36.16,15.567,36.16z"/>
	<path fill="#ED1C25" d="M60.611,36c8.575,0,15.569-6.996,15.569-15.566c0-8.575-6.994-15.566-15.569-15.566
		c-8.573,0-15.566,6.991-15.566,15.566C45.045,29.004,52.038,36,60.611,36z"/>
	<path fill="#C11A26" d="M62.098,17.23c0.354,0.464,0.813,0.986,0.978,1.178c0.996,1.139,2.015,2.247,2.963,3.426
		c1.503,1.873,3.536,4.727,2.975,7.27c-0.449,2.037-2.336,3.112-4.175,3.719l-0.08,0.023l-0.084,0.012
		c-0.674,0.086-1.354,0.141-2.031,0.174c-1.485,0.078-2.985,0.074-4.474,0.021c-0.688-0.021-1.381-0.054-2.065-0.105l-0.43-0.032
		l-4.346-6.694l8.667,0.02c-0.35-0.391-0.744-0.795-0.904-0.961c-0.996-1.058-1.986-2.115-2.881-3.261
		c-1.059-1.355-2.117-3.004-2.454-4.713c-0.259-1.316-0.059-2.77,0.556-3.961c0.796-1.542,2.179-2.498,3.859-2.869l0.094-0.021
		l8.465,0.025l1.762,6.814h-1.125C65.617,17.294,63.852,17.183,62.098,17.23z"/>
	<path fill="#FFFFFF" d="M66.055,11.351l1.313,5.07c-2.188,0-4.404-0.167-6.561,0c-0.649,1.835,14.059,12.187,3.763,15.574
		c-3.674,0.448-8.398,0.086-8.398,0.086l-3.236-4.983l8.136,0.02c2.187,0.012-5.517-5.196-6.46-9.979
		c-0.4-2.034,0.422-5.072,3.749-5.808L66.055,11.351z"/>
	<path fill="#FFC107" d="M83.596,30.871c8.445,0,15.332-6.89,15.332-15.336c0-8.444-6.887-15.33-15.332-15.33
		c-8.443,0-15.332,6.886-15.332,15.33C68.264,23.981,75.15,30.871,83.596,30.871z"/>
	<polygon fill="#EA9053" points="87.916,3.895 86.76,6.325 88.262,6.325 90.42,4.024 	"/>
	<polygon fill="#FFFFFF" points="88.117,4.164 87.211,6.068 88.115,6.068 89.814,4.251 	"/>
	<path fill="#2B2B2B" d="M6.96,47.855l1.58-7.549h1.063l1.241,2.838c0.379,0.858,0.679,1.592,0.902,2.178
		c0.128,0.346,0.275,0.805,0.443,1.391c0.1-0.639,0.221-1.295,0.363-1.971l0.917-4.436h0.984l-1.574,7.549h-1.017l-1.817-4.363
		c-0.325-0.773-0.596-1.488-0.814-2.158c-0.067,0.566-0.178,1.215-0.329,1.924l-0.96,4.598H6.96L6.96,47.855z M14.473,47.855
		l1.579-7.549h0.926l-0.607,2.901c0.341-0.338,0.659-0.582,0.953-0.724c0.296-0.146,0.597-0.225,0.905-0.225
		c0.447,0,0.793,0.125,1.04,0.361c0.245,0.238,0.368,0.555,0.368,0.945c0,0.188-0.057,0.545-0.173,1.059l-0.714,3.227h-0.928
		l0.729-3.307c0.104-0.482,0.156-0.781,0.156-0.904c0-0.182-0.061-0.324-0.182-0.434c-0.119-0.113-0.296-0.174-0.522-0.174
		c-0.332,0-0.647,0.088-0.945,0.266c-0.299,0.178-0.533,0.418-0.705,0.727c-0.168,0.3-0.323,0.8-0.463,1.482l-0.493,2.344h-0.924
		V47.855z M24.006,47.17c-0.32,0.275-0.632,0.482-0.929,0.607c-0.297,0.127-0.617,0.188-0.958,0.188
		c-0.503,0-0.909-0.146-1.218-0.44c-0.309-0.297-0.464-0.682-0.464-1.139c0-0.31,0.069-0.574,0.209-0.81
		c0.138-0.236,0.322-0.425,0.552-0.563c0.229-0.144,0.508-0.244,0.844-0.304c0.21-0.047,0.607-0.073,1.196-0.104
		c0.586-0.022,1.007-0.086,1.259-0.182c0.075-0.258,0.111-0.463,0.111-0.635c0-0.221-0.079-0.389-0.235-0.51
		c-0.22-0.168-0.537-0.258-0.954-0.258c-0.391,0-0.713,0.09-0.964,0.26c-0.249,0.174-0.431,0.422-0.543,0.744l-0.937-0.088
		c0.191-0.539,0.493-0.949,0.911-1.244c0.415-0.285,0.939-0.437,1.572-0.437c0.676,0,1.21,0.164,1.604,0.483
		c0.301,0.244,0.453,0.556,0.453,0.939c0,0.291-0.042,0.627-0.126,1.014l-0.3,1.359c-0.096,0.432-0.141,0.781-0.141,1.049
		c0,0.174,0.034,0.42,0.111,0.746h-0.942C24.065,47.672,24.03,47.445,24.006,47.17L24.006,47.17z M24.359,45.078
		c-0.132,0.055-0.273,0.096-0.421,0.117c-0.152,0.031-0.404,0.061-0.752,0.094c-0.542,0.047-0.923,0.107-1.148,0.18
		c-0.223,0.07-0.391,0.191-0.503,0.355c-0.114,0.16-0.17,0.336-0.17,0.535c0,0.26,0.089,0.473,0.27,0.637
		c0.178,0.172,0.435,0.258,0.769,0.258c0.309,0,0.605-0.084,0.89-0.246c0.284-0.166,0.508-0.389,0.675-0.68
		C24.135,46.033,24.265,45.619,24.359,45.078L24.359,45.078z M26.181,47.855l1.145-5.476h0.85l-0.197,0.957
		c0.37-0.371,0.717-0.644,1.04-0.813c0.322-0.17,0.65-0.262,0.989-0.262c0.447,0,0.797,0.129,1.053,0.363
		c0.255,0.244,0.382,0.563,0.382,0.975c0,0.193-0.046,0.514-0.142,0.949l-0.738,3.305h-0.924l0.766-3.461
		c0.075-0.336,0.113-0.584,0.113-0.744c0-0.186-0.062-0.33-0.191-0.438c-0.128-0.112-0.313-0.174-0.555-0.174
		c-0.485,0-0.918,0.174-1.298,0.514c-0.378,0.343-0.657,0.929-0.835,1.761l-0.532,2.545H26.181L26.181,47.855z M32.052,47.855
		l1.579-7.549h0.926l-0.608,2.901c0.341-0.338,0.657-0.582,0.95-0.724c0.297-0.146,0.599-0.225,0.906-0.225
		c0.445,0,0.792,0.125,1.041,0.361c0.246,0.238,0.369,0.555,0.369,0.945c0,0.188-0.058,0.545-0.176,1.059l-0.711,3.227h-0.926
		l0.729-3.307c0.103-0.482,0.155-0.781,0.155-0.904c0-0.182-0.059-0.324-0.18-0.434c-0.12-0.113-0.295-0.174-0.525-0.174
		c-0.331,0-0.644,0.088-0.944,0.266c-0.299,0.178-0.532,0.418-0.703,0.727c-0.17,0.3-0.326,0.8-0.465,1.482l-0.492,2.344h-0.925
		V47.855z M45.713,47.111c-0.431,0.354-0.799,0.592-1.105,0.719c-0.303,0.127-0.641,0.189-1.011,0.189
		c-0.686,0-1.239-0.203-1.656-0.604c-0.421-0.405-0.629-0.91-0.629-1.521c0-0.396,0.077-0.748,0.233-1.058
		c0.156-0.303,0.391-0.582,0.699-0.819c0.235-0.189,0.585-0.396,1.043-0.601c-0.177-0.396-0.286-0.662-0.322-0.795
		c-0.048-0.188-0.074-0.394-0.074-0.615c0-0.293,0.082-0.582,0.243-0.877c0.161-0.301,0.392-0.532,0.686-0.696
		c0.293-0.166,0.616-0.25,0.963-0.25c0.481,0,0.873,0.141,1.166,0.426c0.292,0.277,0.438,0.623,0.438,1.02
		c0,0.346-0.125,0.684-0.376,1.016c-0.252,0.338-0.749,0.685-1.49,1.058c0.45,0.812,0.883,1.479,1.299,1.995
		c0.252-0.305,0.49-0.659,0.716-1.067l0.811,0.414c-0.224,0.476-0.535,0.94-0.933,1.396c0.22,0.285,0.506,0.629,0.86,1.033
		l-0.699,0.563C46.226,47.734,45.937,47.426,45.713,47.111L45.713,47.111z M44.177,43.006c0.504-0.258,0.865-0.52,1.08-0.789
		c0.152-0.188,0.225-0.373,0.225-0.566c0-0.2-0.066-0.375-0.205-0.514c-0.141-0.139-0.31-0.205-0.506-0.205
		c-0.244,0-0.453,0.094-0.637,0.287c-0.183,0.193-0.273,0.428-0.273,0.691C43.861,42.238,43.965,42.602,44.177,43.006L44.177,43.006
		z M45.166,46.402c-0.64-0.842-1.138-1.603-1.497-2.271c-0.465,0.229-0.796,0.443-0.996,0.646c-0.276,0.295-0.415,0.625-0.415,1.004
		c0,0.396,0.134,0.725,0.397,0.994c0.268,0.264,0.59,0.404,0.975,0.404C44.148,47.18,44.661,46.918,45.166,46.402L45.166,46.402z
		 M56.795,45.195l1.002,0.141c-0.318,0.871-0.778,1.525-1.382,1.971c-0.605,0.449-1.283,0.672-2.035,0.672
		c-0.917,0-1.645-0.276-2.183-0.838c-0.538-0.559-0.807-1.361-0.807-2.397c0-1.361,0.411-2.486,1.226-3.373
		c0.728-0.791,1.631-1.187,2.711-1.187c0.801,0,1.449,0.211,1.946,0.642c0.495,0.43,0.783,1.002,0.86,1.729l-0.937,0.082
		c-0.103-0.543-0.31-0.945-0.623-1.219c-0.308-0.27-0.71-0.402-1.202-0.402c-0.923,0-1.671,0.406-2.238,1.229
		c-0.494,0.707-0.74,1.543-0.74,2.519c0,0.771,0.188,1.362,0.571,1.772c0.383,0.407,0.878,0.61,1.488,0.61
		c0.524,0,0.998-0.17,1.423-0.512C56.296,46.297,56.603,45.814,56.795,45.195L56.795,45.195z M58.4,47.855l1.58-7.549h0.925
		l-0.609,2.901c0.343-0.338,0.658-0.582,0.952-0.724c0.296-0.146,0.6-0.225,0.905-0.225c0.448,0,0.793,0.125,1.04,0.361
		c0.246,0.238,0.371,0.555,0.371,0.945c0,0.188-0.06,0.545-0.176,1.059l-0.713,3.227H61.75l0.729-3.307
		c0.104-0.482,0.156-0.781,0.156-0.904c0-0.182-0.06-0.324-0.179-0.434c-0.123-0.113-0.298-0.174-0.524-0.174
		c-0.332,0-0.646,0.088-0.943,0.266c-0.3,0.178-0.534,0.418-0.704,0.727c-0.169,0.3-0.326,0.8-0.468,1.482l-0.489,2.344H58.4V47.855
		z M64.574,47.855l1.137-5.476h0.928L65.5,47.855H64.574L64.574,47.855z M65.459,41.715l0.971-1.408h1.17l-1.371,1.408H65.459
		L65.459,41.715z M67.176,47.855l1.146-5.476h0.849l-0.194,0.957c0.369-0.371,0.717-0.644,1.039-0.813
		c0.323-0.17,0.651-0.262,0.986-0.262c0.449,0,0.798,0.129,1.057,0.363c0.254,0.244,0.383,0.563,0.383,0.975
		c0,0.193-0.047,0.514-0.146,0.949l-0.737,3.305h-0.925l0.767-3.461c0.078-0.336,0.117-0.584,0.117-0.744
		c0-0.186-0.063-0.33-0.193-0.438c-0.127-0.112-0.311-0.174-0.555-0.174c-0.486,0-0.918,0.174-1.299,0.514
		c-0.378,0.343-0.658,0.929-0.834,1.761l-0.531,2.545H67.176L67.176,47.855z M73.046,47.855l1.579-7.549h0.924l-0.607,2.901
		c0.344-0.338,0.66-0.582,0.955-0.724c0.295-0.146,0.599-0.225,0.904-0.225c0.447,0,0.793,0.125,1.039,0.361
		c0.248,0.238,0.371,0.555,0.371,0.945c0,0.188-0.059,0.545-0.174,1.059l-0.717,3.227h-0.926l0.729-3.307
		c0.104-0.482,0.158-0.781,0.158-0.904c0-0.182-0.059-0.324-0.184-0.434c-0.121-0.113-0.298-0.174-0.523-0.174
		c-0.33,0-0.646,0.088-0.943,0.266c-0.3,0.178-0.533,0.418-0.703,0.727c-0.168,0.3-0.324,0.8-0.466,1.482l-0.491,2.344h-0.925
		V47.855L73.046,47.855z M81.463,47.855l2.377-2.777l-1.365-2.695h1.033l0.473,0.975c0.177,0.359,0.324,0.701,0.457,1.031
		l1.566-2.006h1.139l-2.274,2.766l1.379,2.707h-1.033l-0.555-1.119c-0.117-0.231-0.246-0.521-0.394-0.862l-1.631,1.981H81.463
		L81.463,47.855z M90.777,47.17c-0.32,0.275-0.637,0.482-0.932,0.607c-0.298,0.127-0.619,0.188-0.959,0.188
		c-0.505,0-0.908-0.146-1.22-0.44c-0.308-0.297-0.463-0.682-0.463-1.139c0-0.31,0.069-0.574,0.207-0.81
		c0.142-0.236,0.323-0.425,0.555-0.563c0.229-0.144,0.509-0.244,0.843-0.304c0.213-0.047,0.608-0.073,1.196-0.104
		c0.584-0.022,1.009-0.086,1.263-0.182c0.069-0.258,0.108-0.463,0.108-0.635c0-0.221-0.078-0.389-0.237-0.51
		c-0.22-0.168-0.533-0.258-0.951-0.258c-0.392,0-0.711,0.09-0.963,0.26c-0.248,0.174-0.433,0.422-0.547,0.744l-0.937-0.088
		c0.188-0.539,0.493-0.949,0.909-1.244c0.416-0.285,0.938-0.437,1.576-0.437c0.674,0,1.205,0.164,1.603,0.483
		c0.301,0.244,0.453,0.556,0.453,0.939c0,0.291-0.043,0.627-0.128,1.014l-0.301,1.359c-0.096,0.432-0.143,0.781-0.143,1.049
		c0,0.174,0.035,0.42,0.113,0.746h-0.941C90.834,47.672,90.795,47.445,90.777,47.17L90.777,47.17z M91.125,45.078
		c-0.131,0.055-0.271,0.096-0.422,0.117c-0.15,0.031-0.398,0.061-0.752,0.094c-0.539,0.047-0.924,0.107-1.145,0.18
		c-0.226,0.07-0.396,0.191-0.504,0.355c-0.113,0.16-0.173,0.336-0.173,0.535c0,0.26,0.091,0.473,0.271,0.637
		c0.182,0.172,0.436,0.258,0.77,0.258c0.309,0,0.607-0.084,0.891-0.246c0.285-0.166,0.513-0.389,0.678-0.68
		C90.902,46.033,91.033,45.619,91.125,45.078L91.125,45.078z M89.691,41.715l0.969-1.408h1.17l-1.367,1.408H89.691L89.691,41.715z
		 M96.721,45.859l0.938,0.098c-0.234,0.68-0.563,1.188-0.996,1.514c-0.433,0.334-0.922,0.498-1.472,0.498
		c-0.598,0-1.078-0.189-1.444-0.576c-0.371-0.385-0.558-0.922-0.558-1.608c0-0.589,0.119-1.177,0.357-1.753
		c0.234-0.571,0.574-1.014,1.014-1.313c0.443-0.301,0.947-0.453,1.515-0.453c0.588,0,1.051,0.17,1.397,0.5
		c0.34,0.332,0.512,0.771,0.512,1.316l-0.918,0.064c0-0.351-0.1-0.619-0.299-0.816c-0.197-0.195-0.459-0.293-0.781-0.293
		c-0.379,0-0.7,0.121-0.975,0.357c-0.273,0.229-0.494,0.596-0.648,1.074c-0.153,0.479-0.233,0.94-0.233,1.387
		c0,0.469,0.104,0.815,0.312,1.049c0.203,0.232,0.459,0.35,0.764,0.35c0.303,0,0.588-0.111,0.865-0.344
		C96.344,46.678,96.563,46.332,96.721,45.859z"/>
	<path fill="#EA9053" d="M84.402,8.671c2.877,0.079,5.494,1.132,7.221,3.507c4.461,6.139,0.543,18.013-7.576,18.623
		c-0.838,0.064-1.672-0.023-2.477-0.258c-3.693-1.063-6.148-4.871-7.109-8.396c-0.818-3.013-0.773-6.509,0.876-9.246
		C77.287,9.67,80.795,8.571,84.402,8.671L84.402,8.671z M83.992,15.093c-0.867-0.007-1.756,0.184-2.314,0.9
		c-0.855,1.097-0.689,2.986-0.383,4.25c0.246,1.029,0.688,2.136,1.295,3.008c0.184,0.263,0.789,1.032,1.158,1.036
		c0.061,0,0.117-0.01,0.174-0.02c0.586-0.113,1.096-0.785,1.375-1.265c0.518-0.882,0.838-1.972,0.982-2.98
		C86.523,18.292,86.398,15.111,83.992,15.093z"/>
	<path fill="#FFFFFF" d="M84.375,9.671c12.334,0.341,9.305,19.403-0.406,20.138C74.624,30.51,69.34,9.255,84.375,9.671L84.375,9.671
		z M84,14.091c-6.994-0.055-3.172,11.188-0.256,11.194C87.508,25.301,89.434,14.137,84,14.091z"/>
	<polygon fill="#EA9053" points="84.246,7.184 83.711,8.055 80.357,8.055 81.119,7.135 82.992,4.919 85.615,4.919 87.693,8.072 
		84.838,8.072 	"/>
	<polygon fill="#FFFFFF" points="81.432,7.331 83.189,5.25 85.391,5.25 87.031,7.743 85.063,7.743 84.232,6.495 83.477,7.726 
		81.104,7.726 	"/>
	<path fill="#078844" d="M16.172,14.804l2.138-3.71l8.229,0.024c-0.053,0.907-4.512,8.602-5.475,10.258l5.562,10.655
		c-1.409-0.102-8.387,0.004-8.388,0c-0.061-0.078-0.414-0.707-0.465-0.793c-0.123-0.199-0.234-0.412-0.345-0.615
		c-0.313-0.588-0.609-1.18-0.903-1.777c-0.066-0.131-0.13-0.266-0.194-0.395L15.03,32.08H5.586l5.984-10.735
		c-1.758-3.264-3.629-6.954-5.386-10.217c2.843-0.011,5.606-0.016,8.557-0.022L16.172,14.804z"/>
	<polygon fill="#FFFFFF" points="7.791,12.061 13.95,12.061 16.02,17.129 18.891,12.044 25.053,12.044 19.903,21.35 24.882,30.885 
		18.807,30.885 16.19,25.822 14.393,30.842 7.386,30.842 12.73,21.35 	"/>
	<path fill="#4285F4" d="M38.067,31.104c8.574,0,15.568-6.994,15.568-15.567c0-8.574-6.994-15.568-15.568-15.568
		c-8.574,0-15.568,6.994-15.568,15.568C22.499,24.11,29.493,31.104,38.067,31.104z"/>
	<path fill="#4D6ED6" d="M39.045,8.671c2.876,0.079,5.497,1.132,7.222,3.507c4.46,6.139,0.542,18.013-7.576,18.623
		c-0.838,0.064-1.671-0.023-2.478-0.258c-3.694-1.063-6.146-4.871-7.107-8.396c-0.82-3.013-0.774-6.509,0.875-9.246
		C31.93,9.67,35.441,8.571,39.045,8.671L39.045,8.671z M38.636,15.093c-0.869-0.007-1.755,0.184-2.314,0.9
		c-0.857,1.097-0.692,2.986-0.386,4.25c0.249,1.029,0.69,2.136,1.297,3.008c0.181,0.263,0.789,1.032,1.159,1.036
		c0.058,0,0.116-0.01,0.173-0.02c0.588-0.113,1.094-0.785,1.376-1.265c0.518-0.882,0.836-1.972,0.98-2.98
		C41.167,18.292,41.045,15.111,38.636,15.093z"/>
	<path fill="#FFFFFF" d="M39.018,9.671c12.335,0.341,9.305,19.403-0.404,20.138C29.269,30.51,23.984,9.255,39.018,9.671
		L39.018,9.671z M38.644,14.091c-6.994-0.055-3.171,11.188-0.255,11.194C42.151,25.301,44.078,14.137,38.644,14.091z"/>
	<polygon fill="#4D6ED6" points="38.89,7.184 38.356,8.055 35.001,8.055 35.765,7.135 37.636,4.919 40.26,4.919 42.335,8.072 
		39.482,8.072 	"/>
	<polygon fill="#FFFFFF" points="36.076,7.331 37.832,5.25 40.035,5.25 41.675,7.743 39.706,7.743 38.877,6.495 38.122,7.726 
		35.747,7.726 	"/>
	<path fill="#4D6ED6" d="M42.484,5.273l-0.916-1.468l0.17-0.146c0.377-0.315,0.834-0.579,1.333-0.633
		c0.396-0.042,0.786,0.055,1.104,0.295c0.615,0.466,0.814,1.311,0.608,2.034c-0.288,1.013-1.219,1.574-2.195,1.793L42.275,7.22
		V5.684l0.165-0.065c0.288-0.112,0.714-0.319,0.877-0.599c0.062-0.105,0.084-0.227,0.006-0.33c-0.065-0.084-0.176-0.126-0.282-0.116
		c-0.165,0.016-0.281,0.152-0.352,0.293L42.484,5.273z"/>
	<path fill="#FFFFFF" d="M42.462,4.75l-0.558-0.892c2.545-2.141,4.242,2.225,0.63,3.041v-1.04
		C44.737,5.001,43.044,3.599,42.462,4.75z"/>
	<g>
		<path fill="#212121" d="M99.167,22.422l1.592,0.273c-0.261,0.766-0.649,1.344-1.165,1.742c-0.514,0.403-1.111,0.604-1.787,0.604
			c-0.772,0-1.389-0.256-1.836-0.754c-0.459-0.494-0.685-1.179-0.685-2.052c0-0.712,0.136-1.385,0.414-2.017
			c0.274-0.634,0.687-1.133,1.239-1.497c0.554-0.364,1.162-0.546,1.822-0.546c0.717,0,1.286,0.202,1.711,0.606
			c0.43,0.407,0.666,0.931,0.725,1.594l-1.563,0.182c-0.034-0.368-0.139-0.638-0.31-0.811c-0.176-0.174-0.391-0.262-0.667-0.262
			c-0.315,0-0.615,0.13-0.886,0.384c-0.276,0.254-0.489,0.636-0.633,1.145c-0.15,0.507-0.227,0.984-0.227,1.428
			c0,0.39,0.087,0.686,0.264,0.898c0.178,0.207,0.393,0.313,0.658,0.313s0.516-0.104,0.76-0.31
			C98.835,23.139,99.031,22.831,99.167,22.422z"/>
		<path fill="#212121" d="M101.814,22.164c0-1.215,0.32-2.187,0.953-2.904c0.637-0.724,1.469-1.083,2.504-1.083
			c0.895,0,1.597,0.266,2.101,0.797c0.498,0.535,0.754,1.251,0.754,2.152c0,1.06-0.315,1.981-0.944,2.753
			c-0.632,0.77-1.476,1.162-2.524,1.162c-0.577,0-1.081-0.127-1.527-0.372c-0.442-0.249-0.772-0.603-0.987-1.052
			C101.924,23.165,101.814,22.679,101.814,22.164L101.814,22.164z M106.493,20.892c0-0.42-0.112-0.758-0.341-1.015
			c-0.227-0.253-0.514-0.381-0.877-0.381c-0.351,0-0.666,0.121-0.94,0.359c-0.272,0.233-0.483,0.583-0.638,1.031
			c-0.151,0.456-0.229,0.875-0.229,1.253c0,0.471,0.122,0.846,0.354,1.122c0.234,0.278,0.531,0.419,0.891,0.419
			c0.449,0,0.827-0.209,1.13-0.629C106.277,22.462,106.493,21.739,106.493,20.892z"/>
		<path fill="#212121" d="M109.954,18.338h1.558l-0.142,0.782c0.606-0.631,1.243-0.945,1.907-0.945c0.457,0,0.811,0.102,1.056,0.307
			c0.251,0.205,0.411,0.487,0.478,0.851c0.211-0.33,0.517-0.604,0.908-0.828c0.395-0.221,0.807-0.332,1.229-0.332
			c0.484,0,0.865,0.144,1.136,0.427c0.272,0.286,0.411,0.658,0.411,1.127c-0.012,0.223-0.064,0.61-0.184,1.161l-0.789,3.984h-1.638
			l0.789-3.984c0.095-0.497,0.146-0.784,0.152-0.852c0-0.188-0.052-0.333-0.152-0.441c-0.104-0.106-0.256-0.165-0.463-0.165
			c-0.414,0-0.78,0.232-1.106,0.701c-0.234,0.336-0.437,0.929-0.604,1.78l-0.571,2.961h-1.648l0.773-3.961
			c0.09-0.454,0.133-0.752,0.133-0.887c0-0.17-0.058-0.316-0.164-0.428c-0.11-0.107-0.26-0.166-0.449-0.166
			c-0.18,0-0.366,0.061-0.555,0.177c-0.192,0.114-0.358,0.273-0.504,0.474c-0.142,0.202-0.267,0.464-0.373,0.78
			c-0.045,0.15-0.125,0.484-0.229,1.007l-0.583,3.004h-1.646L109.954,18.338z"/>
		<polygon fill="#212121" points="119.527,23.174 121.161,23.174 120.843,24.872 119.213,24.872 		"/>
		<path fill="#212121" d="M125.456,24.872h-1.416l-1.22-6.534h1.623l0.408,2.855c0.125,0.771,0.197,1.284,0.229,1.54
			c0.035-0.068,0.166-0.334,0.404-0.794c0.234-0.46,0.377-0.738,0.434-0.832l1.5-2.769h1.77L125.456,24.872z"/>
		<path fill="#212121" d="M130.23,18.338h1.565l-0.157,0.858c0.391-0.369,0.758-0.628,1.103-0.786
			c0.337-0.157,0.696-0.235,1.069-0.235c0.5,0,0.905,0.154,1.193,0.467c0.286,0.313,0.434,0.726,0.434,1.244
			c0,0.228-0.074,0.661-0.215,1.295l-0.729,3.691h-1.642l0.74-3.7c0.105-0.555,0.166-0.883,0.172-0.994
			c0-0.232-0.064-0.414-0.188-0.546c-0.128-0.133-0.298-0.202-0.522-0.202c-0.244,0-0.515,0.11-0.813,0.331
			c-0.301,0.214-0.528,0.507-0.694,0.868c-0.136,0.253-0.271,0.775-0.433,1.566l-0.516,2.677h-1.641L130.23,18.338z"/>
		<polygon fill="#212121" points="93.277,23.229 95.074,23.229 94.723,24.971 92.93,24.971 		"/>
	</g>
</g>
</svg>
