<?xml version="1.0" encoding="utf-8"?>
<!-- Generator: Adobe Illustrator 16.0.0, SVG Export Plug-In . SVG Version: 6.00 Build 0)  -->
<!DOCTYPE svg PUBLIC "-//W3C//DTD SVG 1.1//EN" "http://www.w3.org/Graphics/SVG/1.1/DTD/svg11.dtd">
<svg version="1.1" id="Layer_1" xmlns="http://www.w3.org/2000/svg" xmlns:xlink="http://www.w3.org/1999/xlink" x="0px" y="0px"
	 width="30px" height="30px" viewBox="0 0 30 30" enable-background="new 0 0 30 30" xml:space="preserve">
<g>
	<path fill-rule="evenodd" clip-rule="evenodd" fill="#FE0000" d="M29.998,13.828c0,0.781,0,1.563,0,2.344
		c-0.109,0.272-0.092,0.564-0.131,0.848c-0.422,2.95-1.586,5.568-3.551,7.811c-2.432,2.771-5.475,4.447-9.125,5.009
		c-0.359,0.056-0.73,0.041-1.08,0.161c-0.781,0-1.563,0-2.342,0c-0.045-0.098-0.137-0.056-0.205-0.063
		c-1.621-0.168-3.191-0.538-4.666-1.238c-4.895-2.325-7.824-6.153-8.738-11.509C0.105,16.87,0.133,16.537,0,16.23
		c0-0.84,0-1.68,0-2.52c0.094-0.03,0.057-0.112,0.064-0.173c0.082-0.529,0.137-1.064,0.246-1.589
		C1.604,5.777,6.553,1.115,12.809,0.159C13.148,0.107,13.5,0.128,13.828,0c0.76,0,1.521,0,2.283,0
		c0.02,0.062,0.072,0.052,0.119,0.056c2.209,0.175,4.287,0.792,6.193,1.921c4.152,2.455,6.631,6.066,7.414,10.834
		C29.893,13.149,29.869,13.501,29.998,13.828z M14.887,9.492c-1.75,0.033-3.613,0.04-5.471,0.231
		c-1.277,0.132-1.932,0.715-2.164,1.982c-0.209,1.146-0.248,2.309-0.246,3.47c0,1.337,0.016,2.679,0.326,3.988
		c0.193,0.816,0.73,1.335,1.563,1.522c0.439,0.1,0.889,0.137,1.334,0.167c2.418,0.162,4.838,0.169,7.258,0.107
		c1.102-0.027,2.205-0.068,3.299-0.215c1.098-0.147,1.754-0.768,1.949-1.865c0.186-1.051,0.238-2.112,0.254-3.177
		c0.02-1.377-0.021-2.752-0.26-4.113c-0.168-0.965-0.762-1.606-1.652-1.787c-0.316-0.063-0.637-0.103-0.957-0.128
		C18.416,9.539,16.707,9.511,14.887,9.492z"/>
	<path fill-rule="evenodd" clip-rule="evenodd" fill="#FEFDFD" d="M14.887,9.492c1.82,0.019,3.529,0.047,5.232,0.184
		c0.32,0.025,0.641,0.064,0.957,0.128c0.891,0.181,1.484,0.822,1.652,1.787c0.238,1.361,0.279,2.736,0.26,4.113
		c-0.016,1.064-0.068,2.126-0.254,3.177c-0.195,1.098-0.852,1.718-1.949,1.865c-1.094,0.146-2.197,0.188-3.299,0.215
		c-2.42,0.062-4.84,0.055-7.258-0.107c-0.445-0.03-0.895-0.067-1.334-0.167c-0.832-0.188-1.369-0.706-1.563-1.522
		c-0.311-1.31-0.326-2.651-0.326-3.988c-0.002-1.161,0.037-2.323,0.246-3.47c0.232-1.268,0.887-1.851,2.164-1.982
		C11.273,9.532,13.137,9.525,14.887,9.492z M17.502,15.5c-1.348-0.842-2.656-1.659-3.994-2.496c0,1.682,0,3.313,0,4.992
		C14.844,17.16,16.152,16.343,17.502,15.5z"/>
	<path fill-rule="evenodd" clip-rule="evenodd" fill="#FE0505" d="M17.502,15.5c-1.35,0.843-2.658,1.66-3.994,2.496
		c0-1.68,0-3.311,0-4.992C14.846,13.841,16.154,14.658,17.502,15.5z"/>
</g>
</svg>
