<?xml version="1.0" encoding="utf-8"?>
<!-- Generator: Adobe Illustrator 16.0.0, SVG Export Plug-In . SVG Version: 6.00 Build 0)  -->
<!DOCTYPE svg PUBLIC "-//W3C//DTD SVG 1.1//EN" "http://www.w3.org/Graphics/SVG/1.1/DTD/svg11.dtd">
<svg version="1.1" id="Layer_1" xmlns="http://www.w3.org/2000/svg" xmlns:xlink="http://www.w3.org/1999/xlink" x="0px" y="0px"
	 width="48px" height="48px" viewBox="0 0 48 48" enable-background="new 0 0 48 48" xml:space="preserve">
<circle fill="#4285F4" cx="24" cy="24" r="24"/>
<g id="Group_622" transform="translate(52 450)">
	<g id="Group_373" transform="translate(16.499 0.712)">
		<path id="Path_1085" fill="#FFFFFF" d="M-34.233-433.435L-38.728-438v4.449l0.115,0.116H-34.233z"/>
	</g>
	<g>
		<g>
			<defs>
				<rect id="SVGID_1_" x="-38.728" y="-438" width="21.457" height="24"/>
			</defs>
			<clipPath id="SVGID_2_">
				<use xlink:href="#SVGID_1_"  overflow="visible"/>
			</clipPath>
			<g id="Group_375" transform="translate(0 0)" clip-path="url(#SVGID_2_)">
				<g id="Group_374" transform="translate(0 0)">
					<path id="Path_1086" fill="#FFFFFF" d="M-22.035-426.693l0.59,0.588l-0.59,0.592h-12.248l-0.588-0.592l0.588-0.588H-22.035z
						 M-22.035-421.971h-12.248l-0.588-0.592c-0.001-0.326,0.262-0.59,0.587-0.592h0.001h12.248c0.324,0,0.588,0.264,0.588,0.588
						c0,0.002,0,0.002,0,0.004L-22.035-421.971z M-25.091-418.43h-9.329c-0.286-0.043-0.485-0.305-0.45-0.592l0.45-0.588h9.329
						l0.442,0.588C-24.648-418.691-24.85-418.43-25.091-418.43 M-23.5-432.822v-5.086l0.021-0.091h-13.085
						c-1.201,0.007-2.17,0.985-2.165,2.187v19.626c-0.005,1.201,0.964,2.181,2.165,2.188h17.126
						c1.203-0.006,2.172-0.984,2.166-2.188l0,0v-15.294l-0.201,0.041h-4.652c-0.76-0.005-1.372-0.624-1.369-1.384"/>
				</g>
			</g>
		</g>
	</g>
</g>
</svg>
