<?xml version="1.0" encoding="utf-8"?>
<!-- Generator: Adobe Illustrator 16.0.0, SVG Export Plug-In . SVG Version: 6.00 Build 0)  -->
<!DOCTYPE svg PUBLIC "-//W3C//DTD SVG 1.1//EN" "http://www.w3.org/Graphics/SVG/1.1/DTD/svg11.dtd">
<svg version="1.1" id="Layer_1" xmlns="http://www.w3.org/2000/svg" xmlns:xlink="http://www.w3.org/1999/xlink" x="0px" y="0px"
	 width="48px" height="48px" viewBox="0 0 48 48" enable-background="new 0 0 48 48" xml:space="preserve">
<circle fill="#33B5E5" cx="24" cy="24" r="24"/>
<path id="Path_1660" fill="#FFFFFF" d="M21,24c-1.657,0-3,1.344-3,3s1.343,3,3,3s3-1.344,3-3S22.657,24,21,24z M15,18
	c-1.657,0-3,1.344-3,3s1.343,3,3,3s3-1.344,3-3S16.657,18,15,18z M15,30c-1.657,0-3,1.344-3,3s1.343,3,3,3s3-1.344,3-3
	S16.657,30,15,30z M33,18c1.656,0,3-1.344,3-3s-1.344-3-3-3s-3,1.344-3,3S31.344,18,33,18z M27,30c-1.656,0-3,1.344-3,3s1.344,3,3,3
	s3-1.344,3-3S28.656,30,27,30z M33,24c-1.656,0-3,1.344-3,3s1.344,3,3,3s3-1.344,3-3S34.656,24,33,24z M27,18c-1.656,0-3,1.344-3,3
	s1.344,3,3,3s3-1.344,3-3S28.656,18,27,18z M21,12c-1.657,0-3,1.344-3,3s1.343,3,3,3s3-1.344,3-3S22.657,12,21,12z"/>
</svg>
