<?xml version="1.0" encoding="utf-8"?>
<!-- Generator: Adobe Illustrator 16.0.0, SVG Export Plug-In . SVG Version: 6.00 Build 0)  -->
<!DOCTYPE svg PUBLIC "-//W3C//DTD SVG 1.1//EN" "http://www.w3.org/Graphics/SVG/1.1/DTD/svg11.dtd">
<svg version="1.1" id="Layer_1" xmlns="http://www.w3.org/2000/svg" xmlns:xlink="http://www.w3.org/1999/xlink" x="0px" y="0px"
	 width="48px" height="48px" viewBox="0 0 48 48" enable-background="new 0 0 48 48" xml:space="preserve">
<circle fill="#FF3547" cx="24" cy="24" r="24"/>
<g id="Group_621" transform="translate(51 556)">
	<g>
		<g>
			<defs>
				<rect id="SVGID_1_" x="-39" y="-544" width="24" height="24"/>
			</defs>
			<clipPath id="SVGID_2_">
				<use xlink:href="#SVGID_1_"  overflow="visible"/>
			</clipPath>
			<g id="Group_398" transform="translate(0 0)" clip-path="url(#SVGID_2_)">
				<g id="Group_393" transform="translate(0 6.49)">
					<path id="Path_1099" fill="#FFFFFF" d="M-25.057-542.023c-0.223,0.708-0.436,1.324-0.608,1.95
						c-0.298,1.118-0.948,2.11-1.856,2.83c-2.49,1.976-4.992,3.937-7.505,5.883c-0.451,0.458-1.188,0.464-1.645,0.013
						c-0.098-0.098-0.178-0.209-0.236-0.334c-2.21-3.252-2.718-7.369-1.365-11.061c0.178-0.541,0.698-0.895,1.267-0.862
						c2.653-0.149,5.306-0.347,7.963-0.399c0.769,0.061,1.513,0.296,2.176,0.688C-26.229-542.933-25.623-542.502-25.057-542.023"/>
				</g>
				<g id="Group_394" transform="translate(10.299 10.168)">
					<path id="Path_1100" fill="#FFFFFF" d="M-32.953-544c0.732,0.477,1.434,1,2.1,1.566c0.514,0.473,0.922,1.049,1.197,1.689
						c0.615,1.521,1.086,3.095,1.652,4.634c0.299,0.688,0.133,1.487-0.415,2c-2.233,2.469-5.394,3.896-8.722,3.94
						c-0.286,0.008-0.572-0.015-0.853-0.067c-0.821-0.156-1.116-0.562-0.971-1.384c0.091-0.51,0.248-1.01,0.39-1.511
						c0.522-1.854,1.139-3.688,1.551-5.568C-36.619-541.027-35.099-543.009-32.953-544"/>
				</g>
				<g id="Group_395" transform="translate(5.047 0)">
					<path id="Path_1101" fill="#FFFFFF" d="M-31.117-538.275c-1.599,0.129-3.196-0.252-4.563-1.086
						c-0.9-0.516-1.856-0.947-2.768-1.449c-0.7-0.383-0.74-0.896-0.076-1.307c2.846-1.832,6.34-2.359,9.6-1.449
						c0.589,0.109,0.978,0.677,0.866,1.266c-0.014,0.066-0.03,0.132-0.057,0.195c-0.312,1.183-0.688,2.348-1.08,3.508
						c-0.117,0.176-0.309,0.289-0.52,0.309c-0.465,0.044-0.936,0.014-1.405,0.014"/>
				</g>
				<g id="Group_396" transform="translate(18.737 6.214)">
					<path id="Path_1102" fill="#FFFFFF" d="M-33.739-538.121c-0.059,0.62-0.107,1.241-0.178,1.86
						c-0.068,0.6-0.387,0.775-0.911,0.46c-2.15-1.3-3.79-2.99-4.167-5.601c-0.02-0.233,0.064-0.463,0.23-0.629
						c0.732-0.582,1.49-1.132,2.262-1.664c0.742-0.514,1.242-0.375,1.617,0.434C-34.137-541.65-33.747-539.897-33.739-538.121"/>
				</g>
				<g id="Group_397" transform="translate(16.665 1.395)">
					<path id="Path_1103" fill="#FFFFFF" d="M-36.162-539.715c-1.853,0-1.853,0-2.374-1.744c-0.182-0.516-0.332-1.042-0.451-1.576
						c-0.051-0.292,0.021-0.592,0.2-0.83c0.235-0.15,0.528-0.176,0.787-0.07c1.546,0.773,2.882,1.912,3.892,3.314
						c0.342,0.476,0.114,0.856-0.49,0.9c-0.519,0.036-1.043,0.008-1.563,0.008"/>
				</g>
			</g>
		</g>
	</g>
</g>
</svg>
