<?xml version="1.0" encoding="utf-8"?>
<!-- Generator: Adobe Illustrator 16.0.0, SVG Export Plug-In . SVG Version: 6.00 Build 0)  -->
<!DOCTYPE svg PUBLIC "-//W3C//DTD SVG 1.1//EN" "http://www.w3.org/Graphics/SVG/1.1/DTD/svg11.dtd">
<svg version="1.1" id="Layer_1" xmlns="http://www.w3.org/2000/svg" xmlns:xlink="http://www.w3.org/1999/xlink" x="0px" y="0px"
	 width="48px" height="48px" viewBox="0 0 48 48" enable-background="new 0 0 48 48" xml:space="preserve">
<circle fill="#33B5E5" cx="24" cy="24" r="24"/>
<g id="Group_625" transform="translate(168 660)">
	<g id="Group_630">
		<g id="Group_389" transform="translate(0 0)">
			<path id="Path_1097" fill="#FFFFFF" d="M-153.352-638.366c-0.002-3.93,3.181-7.118,7.11-7.121c3.93-0.002,7.117,3.181,7.12,7.11
				c0.003,3.929-3.181,7.117-7.11,7.12c-0.002,0-0.005,0-0.007,0C-150.165-631.262-153.347-634.441-153.352-638.366
				 M-132.452-626.536l-5.983-5.983c3.221-4.316,2.332-10.426-1.982-13.646c-4.316-3.221-10.425-2.333-13.646,1.983
				c-3.22,4.315-2.333,10.425,1.983,13.645c1.688,1.261,3.739,1.938,5.845,1.937c1.997,0,3.946-0.615,5.58-1.767l6.018,6.019
				c0.604,0.604,1.582,0.604,2.188,0C-131.85-624.953-131.85-625.934-132.452-626.536"/>
		</g>
	</g>
</g>
</svg>
