<?xml version="1.0" encoding="utf-8"?>
<!-- Generator: Adobe Illustrator 16.0.0, SVG Export Plug-In . SVG Version: 6.00 Build 0)  -->
<!DOCTYPE svg PUBLIC "-//W3C//DTD SVG 1.1//EN" "http://www.w3.org/Graphics/SVG/1.1/DTD/svg11.dtd">
<svg version="1.1" id="Layer_1" xmlns="http://www.w3.org/2000/svg" xmlns:xlink="http://www.w3.org/1999/xlink" x="0px" y="0px"
	 width="48px" height="48px" viewBox="0 0 48 48" enable-background="new 0 0 48 48" xml:space="preserve">
<circle fill="#FFC107" cx="24" cy="24" r="24"/>
<g id="Group_610" transform="translate(3046.599 195)">
	<g id="Group_629">
		<g id="Group_352">
			<path id="Path_1069" fill="#FFFFFF" d="M-3021.026-159.352c-3.505,1.166-8.411-0.801-10.971-4.367
				c-2.939-4.088-3.148-9.538-0.53-13.839c2.427-4.13,7.248-6.214,11.919-5.153l-0.259,0.954c-0.859,3.179-1.754,6.349-2.554,9.544
				c-0.184,0.773-0.193,1.578-0.029,2.355c0.69,3.188,1.476,6.354,2.222,9.528c0.076,0.326,0.137,0.656,0.199,0.979"/>
		</g>
		<g id="Group_353" transform="translate(13.221 13.51)">
			<path id="Path_1070" fill="#FFFFFF" d="M-3031.933-173.305l-2.424-9.711l9.625,2.758c-1.197,3.307-3.854,5.872-7.199,6.953"/>
		</g>
		<g id="Group_354" transform="translate(13.129 0.89)">
			<path id="Path_1071" fill="#FFFFFF" d="M-3031.47-183.015c5.116,1.508,8.541,7.655,7.211,12.967l-10.1-2.894L-3031.47-183.015"/>
		</g>
	</g>
</g>
</svg>
