<?xml version="1.0" encoding="utf-8"?>
<!-- Generator: Adobe Illustrator 16.0.0, SVG Export Plug-In . SVG Version: 6.00 Build 0)  -->
<!DOCTYPE svg PUBLIC "-//W3C//DTD SVG 1.1//EN" "http://www.w3.org/Graphics/SVG/1.1/DTD/svg11.dtd">
<svg version="1.1" id="Layer_1" xmlns="http://www.w3.org/2000/svg" xmlns:xlink="http://www.w3.org/1999/xlink" x="0px" y="0px"
	 width="30px" height="30px" viewBox="0 0 30 30" enable-background="new 0 0 30 30" xml:space="preserve">
<g>
	<path fill-rule="evenodd" clip-rule="evenodd" fill="#295396" d="M29.998,13.3c0,1.167,0,2.333,0,3.5
		c-0.205,0.151-0.143,0.393-0.174,0.59c-1.035,6.415-6.02,11.397-12.439,12.437c-0.195,0.031-0.438-0.036-0.586,0.174
		c-1.168,0-2.334,0-3.5,0c-0.072-0.162-0.227-0.105-0.348-0.125c-6.902-1.119-11.783-6.076-12.797-12.99
		C0.131,16.724,0.211,16.509,0,16.4c0-0.867,0-1.733,0-2.601c0.168-0.071,0.104-0.227,0.119-0.348
		C0.93,6.624,5.848,1.422,12.609,0.231C13.008,0.161,13.432,0.22,13.799,0c0.834,0,1.666,0,2.5,0
		c0.082,0.19,0.258,0.108,0.391,0.125c6.951,0.914,12.053,5.859,13.178,12.78C29.891,13.039,29.816,13.215,29.998,13.3z
		 M12.637,15.19c-0.135,0.173-0.115,0.377-0.115,0.575c-0.002,2.532-0.002,5.063,0,7.596c0,0.192-0.053,0.409,0.16,0.543
		c0.037,0.04,0.076,0.08,0.113,0.119c0.078,0.135,0.211,0.149,0.344,0.149c0.939,0.003,1.879,0.003,2.82,0.001
		c0.133-0.001,0.266-0.016,0.346-0.148c0.164-0.137,0.137-0.32,0.137-0.505c-0.006-2.666,0-5.332-0.016-7.998
		c-0.002-0.361,0.123-0.458,0.463-0.442c0.516,0.024,1.033-0.014,1.549,0.015c0.354,0.02,0.463-0.119,0.486-0.453
		c0.053-0.764,0.127-1.527,0.217-2.288c0.039-0.336-0.068-0.447-0.402-0.437c-0.666,0.02-1.334-0.001-2,0.01
		c-0.254,0.005-0.361-0.079-0.352-0.345c0.02-0.449-0.002-0.9,0.021-1.349c0.035-0.672,0.365-1.002,1.035-1.033
		c0.449-0.021,0.9-0.022,1.35-0.001c0.303,0.015,0.418-0.081,0.412-0.393c-0.018-0.767-0.02-1.533,0-2.3
		c0.008-0.327-0.139-0.393-0.422-0.387c-0.932,0.022-1.865,0.005-2.797,0.048c-1.932,0.088-3.211,1.389-3.285,3.324
		c-0.025,0.682-0.018,1.366-0.004,2.049c0.008,0.32-0.098,0.461-0.432,0.439c-0.348-0.021-0.699,0-1.049-0.017
		c-0.305-0.014-0.404,0.108-0.395,0.414c0.02,0.716,0.033,1.435-0.004,2.148c-0.023,0.424,0.1,0.535,0.525,0.538
		C11.771,15.067,12.234,14.888,12.637,15.19z"/>
	<path fill-rule="evenodd" clip-rule="evenodd" fill="#FCFDFD" d="M12.795,24.023c-0.037-0.039-0.076-0.079-0.113-0.119
		c0.006-2.743,0.012-5.486,0.014-8.229c0-0.162,0.045-0.334-0.059-0.485c-0.402-0.303-0.865-0.123-1.293-0.126
		c-0.426-0.003-0.549-0.114-0.525-0.538c0.037-0.714,0.023-1.433,0.004-2.148c-0.01-0.306,0.09-0.428,0.395-0.414
		c0.35,0.017,0.701-0.005,1.049,0.017c0.334,0.021,0.439-0.119,0.432-0.439c-0.014-0.683-0.021-1.367,0.004-2.049
		c0.074-1.936,1.354-3.236,3.285-3.324c0.932-0.043,1.865-0.025,2.797-0.048c0.283-0.006,0.43,0.06,0.422,0.387
		c-0.02,0.767-0.018,1.533,0,2.3c0.006,0.312-0.109,0.407-0.412,0.393c-0.449-0.021-0.9-0.02-1.35,0.001
		c-0.67,0.031-1,0.361-1.035,1.033c-0.023,0.448-0.002,0.899-0.021,1.349c-0.01,0.266,0.098,0.35,0.352,0.345
		c0.666-0.011,1.334,0.01,2-0.01c0.334-0.011,0.441,0.101,0.402,0.437c-0.09,0.761-0.164,1.524-0.217,2.288
		c-0.023,0.334-0.133,0.473-0.486,0.453c-0.516-0.028-1.033,0.01-1.549-0.015c-0.34-0.016-0.465,0.081-0.463,0.442
		c0.016,2.666,0.01,5.332,0.016,7.998c0,0.185,0.027,0.368-0.137,0.505C15.133,24.024,13.965,24.024,12.795,24.023z"/>
</g>
</svg>
