<?xml version="1.0" encoding="utf-8"?>
<!-- Generator: Adobe Illustrator 16.0.0, SVG Export Plug-In . SVG Version: 6.00 Build 0)  -->
<!DOCTYPE svg PUBLIC "-//W3C//DTD SVG 1.1//EN" "http://www.w3.org/Graphics/SVG/1.1/DTD/svg11.dtd">
<svg version="1.1" id="Layer_1" xmlns="http://www.w3.org/2000/svg" xmlns:xlink="http://www.w3.org/1999/xlink" x="0px" y="0px"
	 width="30px" height="30px" viewBox="0 0 30 30" enable-background="new 0 0 30 30" xml:space="preserve">
<g>
	<path fill-rule="evenodd" clip-rule="evenodd" fill="#40BAF3" d="M0,14.996C0.001,6.71,6.714-0.003,14.994,0
		c8.297,0.003,15.008,6.716,15.004,15.006C29.994,23.3,23.275,30.009,14.984,30C6.695,29.991-0.002,23.285,0,14.996z M24.799,7.469
		C24.76,7.486,24.719,7.5,24.68,7.521c-0.719,0.397-1.475,0.692-2.279,0.867c-0.094,0.02-0.162,0.013-0.236-0.062
		c-0.918-0.904-2.016-1.32-3.301-1.16c-1.342,0.168-2.391,0.826-3.102,1.981c-0.541,0.878-0.654,1.837-0.457,2.839
		c0.021,0.105,0.012,0.132-0.104,0.125c-0.467-0.028-0.928-0.084-1.387-0.171c-2.709-0.516-4.949-1.837-6.736-3.931
		C6.968,7.883,6.941,7.91,6.875,8.034c-0.818,1.551-0.529,3.495,0.709,4.742c0.184,0.184,0.385,0.346,0.627,0.526
		c-0.355-0.021-0.66-0.07-0.959-0.152c-0.299-0.081-0.58-0.21-0.877-0.354c0.006,0.98,0.299,1.835,0.893,2.581
		c0.598,0.747,1.369,1.224,2.313,1.439c-0.072,0.063-0.148,0.061-0.217,0.073c-0.51,0.1-1.023,0.105-1.578,0.004
		c0.688,1.746,1.93,2.686,3.797,2.837c-1.783,1.346-3.76,1.886-5.982,1.673c0.336,0.221,0.652,0.4,0.979,0.564
		c2.34,1.178,4.807,1.517,7.379,1.068c2.868-0.499,5.2-1.912,6.958-4.227c1.678-2.21,2.492-4.72,2.445-7.5
		c-0.002-0.117,0.023-0.194,0.121-0.266c0.473-0.346,0.896-0.746,1.277-1.19c0.211-0.245,0.414-0.496,0.604-0.799
		c-0.213,0.081-0.391,0.152-0.572,0.216c-0.178,0.062-0.357,0.12-0.539,0.17c-0.188,0.052-0.377,0.096-0.566,0.134
		c-0.184,0.038-0.371,0.064-0.555,0.097c0.014-0.048,0.033-0.063,0.057-0.078c0.482-0.32,0.889-0.719,1.197-1.21
		c0.18-0.286,0.35-0.578,0.414-0.917c0.004-0.004,0.006-0.007,0.01-0.011C24.805,7.459,24.803,7.464,24.799,7.469z"/>
	<path fill-rule="evenodd" clip-rule="evenodd" fill="#FDFEFE" d="M24.797,7.466c-0.064,0.339-0.234,0.631-0.414,0.917
		c-0.309,0.491-0.715,0.89-1.197,1.21c-0.023,0.015-0.043,0.03-0.057,0.078c0.184-0.032,0.371-0.059,0.555-0.097
		c0.189-0.038,0.379-0.082,0.566-0.134c0.182-0.05,0.361-0.108,0.539-0.17c0.182-0.063,0.359-0.135,0.572-0.216
		c-0.189,0.303-0.393,0.554-0.604,0.799c-0.381,0.444-0.805,0.845-1.277,1.19c-0.098,0.071-0.123,0.148-0.121,0.266
		c0.047,2.78-0.768,5.29-2.445,7.5c-1.758,2.314-4.09,3.728-6.958,4.227c-2.572,0.448-5.039,0.109-7.379-1.068
		c-0.326-0.164-0.643-0.344-0.979-0.564c2.223,0.213,4.199-0.327,5.982-1.673c-1.867-0.151-3.109-1.091-3.797-2.837
		c0.555,0.102,1.068,0.096,1.578-0.004c0.068-0.013,0.145-0.011,0.217-0.073c-0.943-0.216-1.715-0.692-2.313-1.439
		c-0.594-0.746-0.887-1.601-0.893-2.581c0.297,0.145,0.578,0.273,0.877,0.354c0.299,0.082,0.604,0.132,0.959,0.152
		c-0.242-0.181-0.443-0.343-0.627-0.526c-1.238-1.247-1.527-3.191-0.709-4.742C6.941,7.91,6.968,7.883,7.078,8.011
		c1.787,2.094,4.027,3.415,6.736,3.931c0.459,0.087,0.92,0.143,1.387,0.171c0.115,0.007,0.125-0.02,0.104-0.125
		c-0.197-1.002-0.084-1.961,0.457-2.839c0.711-1.155,1.76-1.813,3.102-1.981c1.285-0.16,2.383,0.256,3.301,1.16
		c0.074,0.074,0.143,0.081,0.236,0.062c0.805-0.175,1.561-0.47,2.279-0.867c0.039-0.021,0.08-0.035,0.119-0.053L24.797,7.466z"/>
</g>
</svg>
